<?xml version="1.0" encoding="UTF-8" standalone="no"?>
<!-- Created with Inkscape (http://www.inkscape.org/) -->

<svg
   version="1.1"
   id="svg1"
   width="160"
   height="160"
   viewBox="0 0 160 160"
   xmlns="http://www.w3.org/2000/svg"
   xmlns:svg="http://www.w3.org/2000/svg">
  <defs
     id="defs1" />
  <g
     id="g1"
     style="display:inline">
    <path
       id="rect1"
       style="display:inline;fill:#3080b2;stroke-width:1.29728;stroke-miterlimit:5"
       d="M 13.303011,0 H 146.69699 C 154.06686,0 160,5.9331428 160,13.303011 V 146.69699 C 160,154.06686 154.06686,160 146.69699,160 H 13.303011 C 5.9331428,160 0,154.06686 0,146.69699 V 13.303011 C 0,5.9331428 5.9331428,0 13.303011,0 Z" />
    <path
       id="rect4"
       style="display:inline;fill:#ffffff;stroke:none;stroke-width:0;stroke-miterlimit:5;stroke-dasharray:none"
       d="m 151.24785,50.561384 v 77.263806 c 0,11.46094 -9.22668,20.68762 -20.68763,20.68762 H 29.282629 c -11.460946,0 -20.6876277,-9.22668 -20.6876277,-20.68762 V 50.561384 Z" />
    <path
       id="rect5"
       style="fill:#d73829;stroke-width:1.29728;stroke-miterlimit:5"
       d="m 34.735044,13.128205 h 10.11966 v 16.136752 h -10.11966 z" />
    <path
       id="path4"
       style="display:inline;fill:#f44b33;fill-opacity:1;stroke:none;stroke-width:0;stroke-miterlimit:5;stroke-dasharray:none"
       d="M 29.282629,13.020142 H 130.56022 c 11.46095,0 20.68763,9.226682 20.68763,20.687627 V 50.561384 H 8.5950013 V 33.707769 c 0,-11.460945 9.2266817,-20.687627 20.6876277,-20.687627 z" />
    <path
       id="rect10"
       style="fill:#d73829;stroke-width:1.29728;stroke-miterlimit:5"
       d="m 34.735044,13.128205 h 10.11966 v 16.136752 h -10.11966 z" />
    <path
       id="path5"
       style="fill:#9d241e;stroke-width:1.29728;stroke-miterlimit:5"
       d="M 55.794874,28.581199 A 10.529915,8.615385 0 0 1 45.264959,37.196584 10.529915,8.615385 0 0 1 34.735044,28.581199 10.529915,8.615385 0 0 1 45.264959,19.965813 10.529915,8.615385 0 0 1 55.794874,28.581199 Z" />
    <path
       id="rect7"
       style="fill:#d73829;stroke-width:1.29728;stroke-miterlimit:5"
       d="m 104.47864,13.128205 h 10.11965 v 16.136752 h -10.11965 z" />
    <path
       id="ellipse7"
       style="fill:#9d241e;stroke-width:1.29728;stroke-miterlimit:5"
       d="m 125.53847,28.581199 a 10.529915,8.615385 0 0 1 -10.52992,8.615385 10.529915,8.615385 0 0 1 -10.52992,-8.615385 10.529915,8.615385 0 0 1 10.52992,-8.615386 10.529915,8.615385 0 0 1 10.52992,8.615386 z" />
    <path
       id="rect8"
       style="fill:#ffffff;stroke-width:1.29728;stroke-miterlimit:5"
       d="m 115.00855,2.1880343 c 3.71227,0 6.70086,3.1105642 6.70086,6.9743596 V 25.025642 c 0,3.863795 -2.98859,6.974359 -6.70086,6.974359 -3.71227,0 -6.70085,-3.110564 -6.70085,-6.974359 V 9.1623939 c 0,-3.8637954 2.98858,-6.9743596 6.70085,-6.9743596 z" />
    <path
       style="font-weight:600;font-size:122px;line-height:1.2;font-family:Poppins;-inkscape-font-specification:'Poppins Semi-Bold';text-align:center;letter-spacing:0px;word-spacing:0px;text-anchor:middle;fill:#0f222d;stroke-width:1.29728;stroke-miterlimit:5"
       d="M 45.592308,77.202685 V 66.398875 H 65.776179 V 127.45299 H 53.716107 V 77.202685 Z M 116.19394,75.276423 93.916307,127.45299 H 82.023735 L 104.46887,76.616432 H 75.826197 V 66.566376 h 40.367743 z"
       id="text8"
       aria-label="17" />
    <path
       id="rect6"
       style="display:inline;fill:#ffffff;stroke-width:1.29728;stroke-miterlimit:5"
       d="m 45.26496,2.1880343 c 3.712273,0 6.700854,3.1105642 6.700854,6.9743596 V 25.025642 c 0,3.863795 -2.988581,6.974359 -6.700854,6.974359 -3.712273,0 -6.700854,-3.110564 -6.700854,-6.974359 V 9.1623939 c 0,-3.8637954 2.988581,-6.9743596 6.700854,-6.9743596 z" />
  </g>
</svg>
